<svg width="185.375px" height="122px" xmlns="http://www.w3.org/2000/svg" viewBox="157.3125 14 185.375 122" style="background: rgb(253, 253, 253);" preserveAspectRatio="xMidYMid"><defs><filter id="editing-hole" x="-100%" y="-100%" width="300%" height="300%"><feFlood flood-color="#bbcedd" result="black"></feFlood><feMorphology operator="dilate" radius="2" in="SourceGraphic" result="erode"></feMorphology><feGaussianBlur in="erode" stdDeviation="4" result="blur"></feGaussianBlur><feOffset in="blur" dx="2" dy="2" result="offset"></feOffset><feComposite operator="atop" in="offset" in2="black" result="merge"></feComposite><feComposite operator="in" in="merge" in2="SourceGraphic" result="inner-shadow"></feComposite></filter></defs><g filter="url(#editing-hole)"><g transform="translate(192.30412483215332, 96.98500061035156)"><path d="M29.18 1.28L29.18 1.28L29.18 1.28Q20.99 1.28 20.22-10.37L20.22-10.37L9.22-10.37L9.22-10.37Q7.94-7.42 7.04-4.86L7.04-4.86L5.38 0L-3.58 0L16.58-42.24L30.34-42.24L33.02-11.14L33.02-11.14Q33.66-4.42 36.22-2.43L36.22-2.43L36.22-2.43Q34.37 1.28 29.18 1.28ZM14.72-23.17L11.20-15.04L20.03-15.04L19.26-31.49L19.26-33.22L14.72-23.17ZM64.96-42.69L64.96-42.69L64.96-42.69Q80.64-42.69 80.64-31.62L80.64-31.62L80.64-31.62Q80.64-25.54 76.74-21.89L76.74-21.89L76.74-21.89Q72.90-18.24 66.18-18.24L66.18-18.24L66.18-18.24Q63.04-18.24 60.61-20.03L60.61-20.03L60.61-20.03Q59.46-20.80 58.69-21.82L58.69-21.82L58.69-21.82Q63.36-21.82 65.82-24.67L65.82-24.67L65.82-24.67Q68.29-27.52 68.29-33.09L68.29-33.09L68.29-33.09Q68.29-38.66 62.78-38.66L62.78-38.66L61.25-38.66L61.25-38.66Q60.86-38.66 60.54-38.59L60.54-38.59L53.18 0L39.30 0L47.17-41.92L47.17-41.92Q54.02-42.56 57.98-42.62L57.98-42.62L57.98-42.62Q61.95-42.69 64.96-42.69ZM107.52 1.28L107.52 1.28L107.52 1.28Q99.33 1.28 98.56-10.37L98.56-10.37L87.55-10.37L87.55-10.37Q86.27-7.42 85.38-4.86L85.38-4.86L83.71 0L74.75 0L94.91-42.24L108.67-42.24L111.36-11.14L111.36-11.14Q112-4.42 114.56-2.43L114.56-2.43L114.56-2.43Q112.70 1.28 107.52 1.28ZM93.06-23.17L89.54-15.04L98.37-15.04L97.60-31.49L97.60-33.22L93.06-23.17Z" fill="#85a2b6"></path></g></g><style>text {
  font-size: 64px;
  font-family: Arial Black;
  dominant-baseline: central;
  text-anchor: middle;
}</style></svg>