<svg width="360.93125px" height="122px" xmlns="http://www.w3.org/2000/svg" viewBox="69.53437500000001 14 360.93125 122" style="background: rgb(253, 253, 253);" preserveAspectRatio="xMidYMid"><defs><filter id="editing-hole" x="-100%" y="-100%" width="300%" height="300%"><feFlood flood-color="#bbcedd" result="black"></feFlood><feMorphology operator="dilate" radius="2" in="SourceGraphic" result="erode"></feMorphology><feGaussianBlur in="erode" stdDeviation="4" result="blur"></feGaussianBlur><feOffset in="blur" dx="2" dy="2" result="offset"></feOffset><feComposite operator="atop" in="offset" in2="black" result="merge"></feComposite><feComposite operator="in" in="merge" in2="SourceGraphic" result="inner-shadow"></feComposite></filter></defs><g filter="url(#editing-hole)"><g transform="translate(125.06997740268707, 104.76000213623047)"><path d="M34.50-13.25L34.50-13.25L34.50-13.25Q36.16-12.03 36.16-9.44L36.16-9.44L36.16-9.44Q36.16-6.85 35.04-5.02L35.04-5.02L35.04-5.02Q33.92-3.20 31.74-1.79L31.74-1.79L31.74-1.79Q27.07 1.22 18.91 1.22L18.91 1.22L18.91 1.22Q10.75 1.22 6.30-3.04L6.30-3.04L6.30-3.04Q1.86-7.30 1.86-14.85L1.86-14.85L1.86-14.85Q1.86-25.54 7.42-33.66L7.42-33.66L7.42-33.66Q11.65-39.68 19.20-42.24L19.20-42.24L19.20-42.24Q23.10-43.52 26.94-43.52L26.94-43.52L26.94-43.52Q30.78-43.52 33.15-43.01L33.15-43.01L33.15-43.01Q35.52-42.50 37.31-41.47L37.31-41.47L37.31-41.47Q41.22-39.23 41.22-35.65L41.22-35.65L41.22-35.65Q41.22-32.38 38.14-29.95L38.14-29.95L38.14-29.95Q35.33-27.78 33.02-27.78L33.02-27.78L33.02-27.78Q30.72-27.78 29.76-28.10L29.76-28.10L29.76-28.10Q30.02-30.40 30.02-31.90L30.02-31.90L30.02-31.90Q30.02-33.41 29.95-34.50L29.95-34.50L29.95-34.50Q29.89-35.58 29.57-36.61L29.57-36.61L29.57-36.61Q28.93-38.98 26.98-38.98L26.98-38.98L26.98-38.98Q25.02-38.98 23.07-37.15L23.07-37.15L23.07-37.15Q21.12-35.33 19.46-32.26L19.46-32.26L19.46-32.26Q15.68-25.28 15.68-17.02L15.68-17.02L15.68-17.02Q15.68-13.06 17.92-10.78L17.92-10.78L17.92-10.78Q20.16-8.51 24.96-8.51L24.96-8.51L24.96-8.51Q28.54-8.51 31.94-10.88L31.94-10.88L31.94-10.88Q33.41-11.90 34.50-13.25ZM73.66-7.10L73.66-7.10L73.66-7.10Q73.66-4.29 76.54-3.46L76.54-3.46L76.54-3.46Q75.84-1.09 73.09 0.19L73.09 0.19L73.09 0.19Q70.78 1.28 68.26 1.28L68.26 1.28L68.26 1.28Q65.73 1.28 64.42 0.61L64.42 0.61L64.42 0.61Q63.10-0.06 62.40-1.15L62.40-1.15L62.40-1.15Q61.25-2.82 61.25-5.95L61.25-5.95L61.25-5.95Q61.25-7.81 62.27-12.93L62.27-12.93L63.17-17.79L63.17-17.79Q64.26-23.36 64.26-25.41L64.26-25.41L64.26-25.41Q64.26-28.99 62.27-28.99L62.27-28.99L62.27-28.99Q59.78-28.99 58.18-25.34L58.18-25.34L58.18-25.34Q57.54-23.94 57.09-21.82L57.09-21.82L52.74 0L39.87 1.28L48.90-44.80L61.76-46.08L61.25-43.52L61.25-43.52Q59.46-33.66 57.92-30.34L57.92-30.34L57.92-30.34Q61.50-33.92 68.10-33.92L68.10-33.92L68.10-33.92Q75.07-33.92 76.35-29.31L76.35-29.31L76.35-29.31Q76.80-27.84 76.80-26.56L76.80-26.56L76.80-26.56Q76.80-25.28 76.70-24.29L76.70-24.29L76.70-24.29Q76.61-23.30 76.29-21.50L76.29-21.50L75.46-16.90L73.98-9.66L73.98-9.66Q73.66-8.19 73.66-7.10ZM97.09-3.52L97.09-3.52L97.09-3.52Q95.10 1.28 88.77 1.28L88.77 1.28L88.77 1.28Q85.50 1.28 83.46-0.96L83.46-0.96L83.46-0.96Q81.73-2.94 81.73-4.93L81.73-4.93L81.73-4.93Q81.73-10.11 84.10-20.22L84.10-20.22L86.46-32.64L99.46-33.92L95.55-13.70L95.55-13.70Q94.46-8.96 94.46-7.30L94.46-7.30L94.46-7.30Q94.46-3.65 97.09-3.52ZM87.62-41.54L87.62-41.54L87.62-41.54Q87.62-44.03 89.70-45.38L89.70-45.38L89.70-45.38Q91.78-46.72 94.78-46.72L94.78-46.72L94.78-46.72Q97.79-46.72 99.62-45.38L99.62-45.38L99.62-45.38Q101.44-44.03 101.44-41.54L101.44-41.54L101.44-41.54Q101.44-39.04 99.42-37.76L99.42-37.76L99.42-37.76Q97.41-36.48 94.40-36.48L94.40-36.48L94.40-36.48Q91.39-36.48 89.50-37.76L89.50-37.76L89.50-37.76Q87.62-39.04 87.62-41.54ZM133.95-26.62L133.95-26.62L133.95-26.62Q133.95-23.94 131.71-22.27L131.71-22.27L131.71-22.27Q129.47-20.61 125.82-20.61L125.82-20.61L125.82-20.61Q124.29-20.61 123.39-21.06L123.39-21.06L123.39-21.06Q124.10-22.72 124.32-24.80L124.32-24.80L124.32-24.80Q124.54-26.88 124.54-27.46L124.54-27.46L124.54-27.46Q124.54-30.14 122.69-30.14L122.69-30.14L122.69-30.14Q121.41-30.14 119.97-28.54L119.97-28.54L119.97-28.54Q118.53-26.94 117.31-24.45L117.31-24.45L117.31-24.45Q114.62-18.69 114.62-12.86L114.62-12.86L114.62-12.86Q114.62-9.66 115.84-8.22L115.84-8.22L115.84-8.22Q117.06-6.78 119.74-6.78L119.74-6.78L119.74-6.78Q123.46-6.78 126.40-9.86L126.40-9.86L126.40-9.86Q127.23-10.82 127.68-11.90L127.68-11.90L127.68-11.90Q130.11-10.62 130.11-7.10L130.11-7.10L130.11-7.10Q130.11-3.52 126.14-1.15L126.14-1.15L126.14-1.15Q122.05 1.28 115.52 1.28L115.52 1.28L115.52 1.28Q102.53 1.28 102.53-12.48L102.53-12.48L102.53-12.48Q102.53-22.53 108.22-28.29L108.22-28.29L108.22-28.29Q113.73-33.92 123.84-33.92L123.84-33.92L123.84-33.92Q133.95-33.92 133.95-26.62ZM138.46-1.92L138.46-1.92L138.46-1.92Q136.96-3.58 136.29-6.21L136.29-6.21L136.29-6.21Q135.62-8.83 135.62-13.12L135.62-13.12L135.62-13.12Q135.62-17.41 137.09-21.31L137.09-21.31L137.09-21.31Q138.56-25.22 141.25-28.03L141.25-28.03L141.25-28.03Q146.75-33.92 155.84-33.92L155.84-33.92L155.84-33.92Q159.10-33.92 161.47-32.83L161.47-32.83L172.42-33.92L167.68-8.96L167.68-8.96Q167.49-8.19 167.49-6.78L167.49-6.78L167.49-6.78Q167.49-5.38 168.35-4.48L168.35-4.48L168.35-4.48Q169.22-3.58 170.50-3.46L170.50-3.46L170.50-3.46Q169.86-1.28 167.52 0L167.52 0L167.52 0Q165.18 1.28 162.56 1.28L162.56 1.28L162.56 1.28Q159.94 1.28 158.18 0.29L158.18 0.29L158.18 0.29Q156.42-0.70 155.90-2.37L155.90-2.37L155.90-2.37Q154.88-0.77 152.70 0.26L152.70 0.26L152.70 0.26Q150.53 1.28 147.62 1.28L147.62 1.28L147.62 1.28Q144.70 1.28 142.34 0.51L142.34 0.51L142.34 0.51Q139.97-0.26 138.46-1.92ZM151.97-27.90L151.97-27.90L151.97-27.90Q151.23-26.75 150.59-24.80L150.59-24.80L150.59-24.80Q149.95-22.85 148.90-17.63L148.90-17.63L148.90-17.63Q147.84-12.42 147.84-8.70L147.84-8.70L147.84-8.70Q147.84-4.99 148.42-3.90L148.42-3.90L148.42-3.90Q148.99-2.82 150.02-2.82L150.02-2.82L150.02-2.82Q152.06-2.82 153.57-4.77L153.57-4.77L153.57-4.77Q155.07-6.72 155.65-10.18L155.65-10.18L159.04-28.93L159.04-28.93Q157.70-30.08 156.13-30.08L156.13-30.08L156.13-30.08Q154.56-30.08 153.63-29.57L153.63-29.57L153.63-29.57Q152.70-29.06 151.97-27.90ZM180.16-26.75L180.16-26.75L180.16-26.75Q182.34-29.82 185.63-31.87L185.63-31.87L185.63-31.87Q188.93-33.92 192.96-33.92L192.96-33.92L192.96-33.92Q196.99-33.92 198.91-32.64L198.91-32.64L211.46-33.92L207.10-9.34L207.10-9.34Q204.86 3.20 200.13 8.13L200.13 8.13L200.13 8.13Q195.58 12.80 186.75 12.80L186.75 12.80L186.75 12.80Q180.03 12.80 176.19 10.69L176.19 10.69L176.19 10.69Q172.35 8.58 172.35 5.06L172.35 5.06L172.35 5.06Q172.35 2.43 174.34 0.93L174.34 0.93L174.34 0.93Q176.32-0.58 179.39-0.58L179.39-0.58L179.39-0.58Q182.08-0.58 184.13 0.64L184.13 0.64L184.13 0.64Q185.34 1.28 185.92 2.18L185.92 2.18L185.92 2.18Q184.45 3.46 184.45 5.57L184.45 5.57L184.45 5.57Q184.45 8.32 187.01 8.32L187.01 8.32L187.01 8.32Q191.30 8.32 193.73-1.79L193.73-1.79L193.73-1.79Q194.43-4.54 195.01-7.30L195.01-7.30L195.01-7.30Q192.13-3.78 185.60-3.78L185.60-3.78L185.60-3.78Q181.06-3.78 178.43-5.95L178.43-5.95L178.43-5.95Q175.81-8.13 175.81-13.25L175.81-13.25L175.81-13.25Q175.81-16.45 176.90-20.06L176.90-20.06L176.90-20.06Q177.98-23.68 180.16-26.75ZM188.48-13.06L188.48-13.06L188.48-13.06Q188.48-8.70 190.72-8.70L190.72-8.70L190.72-8.70Q192.26-8.70 193.73-10.37L193.73-10.37L193.73-10.37Q194.88-11.71 195.33-13.70L195.33-13.70L198.59-30.14L198.59-30.14Q198.27-30.21 197.95-30.34L197.95-30.34L197.95-30.34Q197.31-30.59 196.48-30.59L196.48-30.59L196.48-30.59Q192.58-30.59 190.27-24.19L190.27-24.19L190.27-24.19Q188.48-19.20 188.48-13.06ZM227.90 1.28L227.90 1.28L227.90 1.28Q213.82 1.28 213.82-11.97L213.82-11.97L213.82-11.97Q213.82-21.38 219.01-27.46L219.01-27.46L219.01-27.46Q224.51-33.92 234.05-33.92L234.05-33.92L234.05-33.92Q240.96-33.92 244.48-30.72L244.48-30.72L244.48-30.72Q248.00-27.52 248.00-20.80L248.00-20.80L248.00-20.80Q248.00-10.56 242.50-4.61L242.50-4.61L242.50-4.61Q237.12 1.28 227.90 1.28ZM229.57-26.56L229.57-26.56L229.57-26.56Q228.80-24.83 228.19-22.24L228.19-22.24L228.19-22.24Q227.58-19.65 226.82-15.55L226.82-15.55L226.82-15.55Q226.05-11.46 226.05-6.40L226.05-6.40L226.05-6.40Q226.05-4.74 226.59-3.65L226.59-3.65L226.59-3.65Q227.14-2.56 228.61-2.56L228.61-2.56L228.61-2.56Q230.08-2.56 231.01-3.26L231.01-3.26L231.01-3.26Q231.94-3.97 232.64-5.63L232.64-5.63L232.64-5.63Q233.92-8.58 234.94-14.05L234.94-14.05L234.94-14.05Q235.97-19.52 236.06-21.89L236.06-21.89L236.06-21.89Q236.16-24.26 236.16-26.02L236.16-26.02L236.16-26.02Q236.16-27.78 235.65-28.93L235.65-28.93L235.65-28.93Q235.14-30.08 233.70-30.08L233.70-30.08L233.70-30.08Q232.26-30.08 231.30-29.18L231.30-29.18L231.30-29.18Q230.34-28.29 229.57-26.56Z" fill="#85a2b6"></path></g></g><style>text {
  font-size: 64px;
  font-family: Arial Black;
  dominant-baseline: central;
  text-anchor: middle;
}</style></svg>