<svg width="387.4666015625px" height="122px" xmlns="http://www.w3.org/2000/svg" viewBox="56.266699218750006 14 387.4666015625 122" style="background: rgb(253, 253, 253);" preserveAspectRatio="xMidYMid"><defs><filter id="editing-hole" x="-100%" y="-100%" width="300%" height="300%"><feFlood flood-color="#bbcedd" result="black"></feFlood><feMorphology operator="dilate" radius="2" in="SourceGraphic" result="erode"></feMorphology><feGaussianBlur in="erode" stdDeviation="4" result="blur"></feGaussianBlur><feOffset in="blur" dx="2" dy="2" result="offset"></feOffset><feComposite operator="atop" in="offset" in2="black" result="merge"></feComposite><feComposite operator="in" in="merge" in2="SourceGraphic" result="inner-shadow"></feComposite></filter></defs><g filter="url(#editing-hole)"><g transform="translate(116.04720029234886, 98.68000221252441)"><path d="M24.96-4.80L24.96-4.80L24.96-4.80Q24.96-9.28 26.75-18.24L26.75-18.24L17.28-18.24L13.76 0L0.38 0L8.51-42.24L22.02-42.24L18.30-23.36L27.78-23.36L31.30-42.24L44.80-42.24L44.80-42.24Q43.90-37.50 42.75-32.19L42.75-32.19L40.58-21.76L40.58-21.76Q38.14-9.60 38.14-4.29L38.14-4.29L38.14-4.29Q38.14-2.11 38.85-0.90L38.85-0.90L38.85-0.90Q35.65 1.28 31.90 1.28L31.90 1.28L31.90 1.28Q28.16 1.28 26.56-0.51L26.56-0.51L26.56-0.51Q24.96-2.30 24.96-4.80ZM49.12-1.92L49.12-1.92L49.12-1.92Q47.62-3.58 46.94-6.21L46.94-6.21L46.94-6.21Q46.27-8.83 46.27-13.12L46.27-13.12L46.27-13.12Q46.27-17.41 47.74-21.31L47.74-21.31L47.74-21.31Q49.22-25.22 51.90-28.03L51.90-28.03L51.90-28.03Q57.41-33.92 66.50-33.92L66.50-33.92L66.50-33.92Q69.76-33.92 72.13-32.83L72.13-32.83L83.07-33.92L78.34-8.96L78.34-8.96Q78.14-8.19 78.14-6.78L78.14-6.78L78.14-6.78Q78.14-5.38 79.01-4.48L79.01-4.48L79.01-4.48Q79.87-3.58 81.15-3.46L81.15-3.46L81.15-3.46Q80.51-1.28 78.18 0L78.18 0L78.18 0Q75.84 1.28 73.22 1.28L73.22 1.28L73.22 1.28Q70.59 1.28 68.83 0.29L68.83 0.29L68.83 0.29Q67.07-0.70 66.56-2.37L66.56-2.37L66.56-2.37Q65.54-0.77 63.36 0.26L63.36 0.26L63.36 0.26Q61.18 1.28 58.27 1.28L58.27 1.28L58.27 1.28Q55.36 1.28 52.99 0.51L52.99 0.51L52.99 0.51Q50.62-0.26 49.12-1.92ZM62.62-27.90L62.62-27.90L62.62-27.90Q61.89-26.75 61.25-24.80L61.25-24.80L61.25-24.80Q60.61-22.85 59.55-17.63L59.55-17.63L59.55-17.63Q58.50-12.42 58.50-8.70L58.50-8.70L58.50-8.70Q58.50-4.99 59.07-3.90L59.07-3.90L59.07-3.90Q59.65-2.82 60.67-2.82L60.67-2.82L60.67-2.82Q62.72-2.82 64.22-4.77L64.22-4.77L64.22-4.77Q65.73-6.72 66.30-10.18L66.30-10.18L69.70-28.93L69.70-28.93Q68.35-30.08 66.78-30.08L66.78-30.08L66.78-30.08Q65.22-30.08 64.29-29.57L64.29-29.57L64.29-29.57Q63.36-29.06 62.62-27.90ZM106.56-17.98L106.56-17.98L106.56-17.98Q108.86-22.08 108.86-26.24L108.86-26.24L108.86-26.24Q108.86-28.99 106.88-28.99L106.88-28.99L106.88-28.99Q105.34-28.99 103.74-26.37L103.74-26.37L103.74-26.37Q102.08-23.74 101.57-20.35L101.57-20.35L98.24 0L84.99 1.28L91.52-32.64L102.08-33.92L100.93-27.46L100.93-27.46Q104.06-33.92 111.10-33.92L111.10-33.92L111.10-33.92Q114.82-33.92 116.83-32L116.83-32L116.83-32Q118.85-30.08 118.85-26.14L118.85-26.14L118.85-26.14Q118.85-22.21 116.26-19.71L116.26-19.71L116.26-19.71Q113.66-17.22 109.25-17.22L109.25-17.22L109.25-17.22Q107.33-17.22 106.56-17.98ZM143.10-31.55L143.10-31.55L143.10-31.55Q145.22-33.92 148.86-33.92L148.86-33.92L148.86-33.92Q151.10-33.92 152.83-32.70L152.83-32.70L152.83-32.70Q154.56-31.49 154.56-29.22L154.56-29.22L154.56-29.22Q154.56-26.94 153.86-24.51L153.86-24.51L153.86-24.51Q153.15-22.08 152.06-19.58L152.06-19.58L152.06-19.58Q149.89-14.72 146.88-10.69L146.88-10.69L146.88-10.69Q142.66-4.86 138.59-1.79L138.59-1.79L138.59-1.79Q134.53 1.28 130.11 1.28L130.11 1.28L130.11 1.28Q126.53 1.28 124.35 0.45L124.35 0.45L124.35 0.45Q123.97-12.99 123.49-17.79L123.49-17.79L123.49-17.79Q123.01-22.59 122.62-25.22L122.62-25.22L122.62-25.22Q121.98-30.34 120.06-31.55L120.06-31.55L120.06-31.55Q121.54-32.83 122.98-33.38L122.98-33.38L122.98-33.38Q124.42-33.92 127.39-33.92L127.39-33.92L127.39-33.92Q130.37-33.92 132.48-31.58L132.48-31.58L132.48-31.58Q134.59-29.25 135.01-25.12L135.01-25.12L135.01-25.12Q135.42-20.99 135.42-16L135.42-16L135.42-16Q135.42-11.01 135.04-4.99L135.04-4.99L135.04-4.99Q137.02-6.40 139.14-10.69L139.14-10.69L139.14-10.69Q142.02-16.64 143.04-23.81L143.04-23.81L143.04-23.81Q143.36-25.98 143.36-28.29L143.36-28.29L143.36-28.29Q143.36-30.59 143.10-31.55ZM159.07-1.92L159.07-1.92L159.07-1.92Q157.57-3.58 156.90-6.21L156.90-6.21L156.90-6.21Q156.22-8.83 156.22-13.12L156.22-13.12L156.22-13.12Q156.22-17.41 157.70-21.31L157.70-21.31L157.70-21.31Q159.17-25.22 161.86-28.03L161.86-28.03L161.86-28.03Q167.36-33.92 176.45-33.92L176.45-33.92L176.45-33.92Q179.71-33.92 182.08-32.83L182.08-32.83L193.02-33.92L188.29-8.96L188.29-8.96Q188.10-8.19 188.10-6.78L188.10-6.78L188.10-6.78Q188.10-5.38 188.96-4.48L188.96-4.48L188.96-4.48Q189.82-3.58 191.10-3.46L191.10-3.46L191.10-3.46Q190.46-1.28 188.13 0L188.13 0L188.13 0Q185.79 1.28 183.17 1.28L183.17 1.28L183.17 1.28Q180.54 1.28 178.78 0.29L178.78 0.29L178.78 0.29Q177.02-0.70 176.51-2.37L176.51-2.37L176.51-2.37Q175.49-0.77 173.31 0.26L173.31 0.26L173.31 0.26Q171.14 1.28 168.22 1.28L168.22 1.28L168.22 1.28Q165.31 1.28 162.94 0.51L162.94 0.51L162.94 0.51Q160.58-0.26 159.07-1.92ZM172.58-27.90L172.58-27.90L172.58-27.90Q171.84-26.75 171.20-24.80L171.20-24.80L171.20-24.80Q170.56-22.85 169.50-17.63L169.50-17.63L169.50-17.63Q168.45-12.42 168.45-8.70L168.45-8.70L168.45-8.70Q168.45-4.99 169.02-3.90L169.02-3.90L169.02-3.90Q169.60-2.82 170.62-2.82L170.62-2.82L170.62-2.82Q172.67-2.82 174.18-4.77L174.18-4.77L174.18-4.77Q175.68-6.72 176.26-10.18L176.26-10.18L179.65-28.93L179.65-28.93Q178.30-30.08 176.74-30.08L176.74-30.08L176.74-30.08Q175.17-30.08 174.24-29.57L174.24-29.57L174.24-29.57Q173.31-29.06 172.58-27.90ZM216.51-17.98L216.51-17.98L216.51-17.98Q218.82-22.08 218.82-26.24L218.82-26.24L218.82-26.24Q218.82-28.99 216.83-28.99L216.83-28.99L216.83-28.99Q215.30-28.99 213.70-26.37L213.70-26.37L213.70-26.37Q212.03-23.74 211.52-20.35L211.52-20.35L208.19 0L194.94 1.28L201.47-32.64L212.03-33.92L210.88-27.46L210.88-27.46Q214.02-33.92 221.06-33.92L221.06-33.92L221.06-33.92Q224.77-33.92 226.78-32L226.78-32L226.78-32Q228.80-30.08 228.80-26.14L228.80-26.14L228.80-26.14Q228.80-22.21 226.21-19.71L226.21-19.71L226.21-19.71Q223.62-17.22 219.20-17.22L219.20-17.22L219.20-17.22Q217.28-17.22 216.51-17.98ZM249.98-33.92L249.98-33.92L249.98-33.92Q252.29-33.92 254.08-33.41L254.08-33.41L254.08-33.41Q254.14-33.66 254.27-34.37L254.27-34.37L254.59-36.35L254.59-36.35Q254.85-37.63 255.23-39.74L255.23-39.74L256.26-44.80L268.99-46.08L261.89-8.96L261.89-8.96Q261.82-8.58 261.82-7.94L261.82-7.94L261.82-6.91L261.82-6.91Q261.82-5.50 262.53-4.45L262.53-4.45L262.53-4.45Q263.23-3.39 264.38-3.39L264.38-3.39L264.38-3.39Q263.10-0.38 259.20 0.90L259.20 0.90L259.20 0.90Q257.86 1.28 255.97 1.28L255.97 1.28L255.97 1.28Q254.08 1.28 252.35 0.29L252.35 0.29L252.35 0.29Q250.62-0.70 250.11-2.37L250.11-2.37L250.11-2.37Q249.09-0.70 247.04 0.29L247.04 0.29L247.04 0.29Q244.99 1.28 242.02 1.28L242.02 1.28L242.02 1.28Q239.04 1.28 236.58 0.51L236.58 0.51L236.58 0.51Q234.11-0.26 232.58-1.92L232.58-1.92L232.58-1.92Q229.76-5.18 229.76-12.61L229.76-12.61L229.76-12.61Q229.76-22.21 235.39-28.03L235.39-28.03L235.39-28.03Q241.02-33.92 249.98-33.92ZM249.54-30.08L249.54-30.08L249.54-30.08Q247.17-30.08 245.89-27.52L245.89-27.52L245.89-27.52Q244.61-24.96 243.30-18.62L243.30-18.62L243.30-18.62Q241.98-12.29 241.98-6.59L241.98-6.59L241.98-6.59Q241.98-2.69 244.29-2.69L244.29-2.69L244.29-2.69Q246.34-2.69 247.78-4.74L247.78-4.74L247.78-4.74Q249.22-6.78 249.79-10.18L249.79-10.18L253.25-28.93L253.25-28.93Q251.90-30.08 249.54-30.08Z" fill="#85a2b6"></path></g></g><style>text {
  font-size: 64px;
  font-family: Arial Black;
  dominant-baseline: central;
  text-anchor: middle;
}</style></svg>