<svg width="195.2095947265625px" height="122px" xmlns="http://www.w3.org/2000/svg" viewBox="152.39520263671875 14 195.2095947265625 122" style="background: rgb(253, 253, 253);" preserveAspectRatio="xMidYMid"><defs><filter id="editing-hole" x="-100%" y="-100%" width="300%" height="300%"><feFlood flood-color="#bbcedd" result="black"></feFlood><feMorphology operator="dilate" radius="2" in="SourceGraphic" result="erode"></feMorphology><feGaussianBlur in="erode" stdDeviation="4" result="blur"></feGaussianBlur><feOffset in="blur" dx="2" dy="2" result="offset"></feOffset><feComposite operator="atop" in="offset" in2="black" result="merge"></feComposite><feComposite operator="in" in="merge" in2="SourceGraphic" result="inner-shadow"></feComposite></filter></defs><g filter="url(#editing-hole)"><g transform="translate(187.253285497427, 96.76000213623047)"><path d="M14.34 0L0.38 0L8.51-42.24L22.59-42.24L14.34 0ZM51.33-9.86L51.33-9.86L51.33-9.86Q52.54-8.32 52.54-5.82L52.54-5.82L52.54-5.82Q52.54-2.37 49.98-0.54L49.98-0.54L49.98-0.54Q47.42 1.28 43.39 1.28L43.39 1.28L43.39 1.28Q41.09 1.28 37.57 0.77L37.57 0.77L37.57 0.77Q30.66-0.32 28.54-0.32L28.54-0.32L28.54-0.32Q26.43-0.32 25.60-0.22L25.60-0.22L25.60-0.22Q24.77-0.13 23.42 0L23.42 0L31.30-42.24L58.88-42.24L58.88-42.24Q58.88-38.34 56.99-36.29L56.99-36.29L56.99-36.29Q55.10-34.24 51.39-34.24L51.39-34.24L51.39-34.24Q47.68-34.24 43.90-35.97L43.90-35.97L41.92-24.77L53.31-24.77L53.31-24.77Q53.31-21.38 51.65-19.49L51.65-19.49L51.65-19.49Q49.98-17.60 47.20-17.60L47.20-17.60L47.20-17.60Q44.42-17.60 42.69-18.24L42.69-18.24L42.69-18.24Q40.96-18.88 40.77-19.07L40.77-19.07L38.46-6.98L38.46-6.98Q40-6.78 42.88-6.78L42.88-6.78L42.88-6.78Q47.81-6.78 51.33-9.86ZM85.76-9.86L85.76-9.86L85.76-9.86Q86.98-8.32 86.98-5.82L86.98-5.82L86.98-5.82Q86.98-2.37 84.42-0.54L84.42-0.54L84.42-0.54Q81.86 1.28 77.82 1.28L77.82 1.28L77.82 1.28Q75.52 1.28 72 0.77L72 0.77L72 0.77Q65.09-0.32 62.98-0.32L62.98-0.32L62.98-0.32Q60.86-0.32 60.03-0.22L60.03-0.22L60.03-0.22Q59.20-0.13 57.86 0L57.86 0L65.73-42.24L93.31-42.24L93.31-42.24Q93.31-38.34 91.42-36.29L91.42-36.29L91.42-36.29Q89.54-34.24 85.82-34.24L85.82-34.24L85.82-34.24Q82.11-34.24 78.34-35.97L78.34-35.97L76.35-24.77L87.74-24.77L87.74-24.77Q87.74-21.38 86.08-19.49L86.08-19.49L86.08-19.49Q84.42-17.60 81.63-17.60L81.63-17.60L81.63-17.60Q78.85-17.60 77.12-18.24L77.12-18.24L77.12-18.24Q75.39-18.88 75.20-19.07L75.20-19.07L72.90-6.98L72.90-6.98Q74.43-6.78 77.31-6.78L77.31-6.78L77.31-6.78Q82.24-6.78 85.76-9.86ZM120.19-9.86L120.19-9.86L120.19-9.86Q121.41-8.32 121.41-5.82L121.41-5.82L121.41-5.82Q121.41-2.37 118.85-0.54L118.85-0.54L118.85-0.54Q116.29 1.28 112.26 1.28L112.26 1.28L112.26 1.28Q109.95 1.28 106.43 0.77L106.43 0.77L106.43 0.77Q99.52-0.32 97.41-0.32L97.41-0.32L97.41-0.32Q95.30-0.32 94.46-0.22L94.46-0.22L94.46-0.22Q93.63-0.13 92.29 0L92.29 0L100.16-42.24L127.74-42.24L127.74-42.24Q127.74-38.34 125.86-36.29L125.86-36.29L125.86-36.29Q123.97-34.24 120.26-34.24L120.26-34.24L120.26-34.24Q116.54-34.24 112.77-35.97L112.77-35.97L110.78-24.77L122.18-24.77L122.18-24.77Q122.18-21.38 120.51-19.49L120.51-19.49L120.51-19.49Q118.85-17.60 116.06-17.60L116.06-17.60L116.06-17.60Q113.28-17.60 111.55-18.24L111.55-18.24L111.55-18.24Q109.82-18.88 109.63-19.07L109.63-19.07L107.33-6.98L107.33-6.98Q108.86-6.78 111.74-6.78L111.74-6.78L111.74-6.78Q116.67-6.78 120.19-9.86Z" fill="#85a2b6"></path></g></g><style>text {
  font-size: 64px;
  font-family: Arial Black;
  dominant-baseline: central;
  text-anchor: middle;
}</style></svg>