<svg width="475.5210327148437px" height="122px" xmlns="http://www.w3.org/2000/svg" viewBox="12.239483642578136 14 475.5210327148437 122" style="background: rgb(253, 253, 253);" preserveAspectRatio="xMidYMid"><defs><filter id="editing-hole" x="-100%" y="-100%" width="300%" height="300%"><feFlood flood-color="#bbcedd" result="black"></feFlood><feMorphology operator="dilate" radius="2" in="SourceGraphic" result="erode"></feMorphology><feGaussianBlur in="erode" stdDeviation="4" result="blur"></feGaussianBlur><feOffset in="blur" dx="2" dy="2" result="offset"></feOffset><feComposite operator="atop" in="offset" in2="black" result="merge"></feComposite><feComposite operator="in" in="merge" in2="SourceGraphic" result="inner-shadow"></feComposite></filter></defs><g filter="url(#editing-hole)"><g transform="translate(82.21390008926392, 97.4000015258789)"><path d="M2.69-39.68L2.69-39.68L2.69-39.68Q4.54-43.52 9.70-43.52L9.70-43.52L9.70-43.52Q14.85-43.52 17.25-40.54L17.25-40.54L17.25-40.54Q19.65-37.57 19.65-30.72L19.65-30.72L19.65-7.87L35.20-42.18L42.82-42.18L22.91 0L7.94 0L6.02-30.72L6.02-30.72Q5.82-34.11 4.90-36.42L4.90-36.42L4.90-36.42Q3.97-38.72 2.69-39.68ZM42.02-1.92L42.02-1.92L42.02-1.92Q40.51-3.58 39.84-6.21L39.84-6.21L39.84-6.21Q39.17-8.83 39.17-13.12L39.17-13.12L39.17-13.12Q39.17-17.41 40.64-21.31L40.64-21.31L40.64-21.31Q42.11-25.22 44.80-28.03L44.80-28.03L44.80-28.03Q50.30-33.92 59.39-33.92L59.39-33.92L59.39-33.92Q62.66-33.92 65.02-32.83L65.02-32.83L75.97-33.92L71.23-8.96L71.23-8.96Q71.04-8.19 71.04-6.78L71.04-6.78L71.04-6.78Q71.04-5.38 71.90-4.48L71.90-4.48L71.90-4.48Q72.77-3.58 74.05-3.46L74.05-3.46L74.05-3.46Q73.41-1.28 71.07 0L71.07 0L71.07 0Q68.74 1.28 66.11 1.28L66.11 1.28L66.11 1.28Q63.49 1.28 61.73 0.29L61.73 0.29L61.73 0.29Q59.97-0.70 59.46-2.37L59.46-2.37L59.46-2.37Q58.43-0.77 56.26 0.26L56.26 0.26L56.26 0.26Q54.08 1.28 51.17 1.28L51.17 1.28L51.17 1.28Q48.26 1.28 45.89 0.51L45.89 0.51L45.89 0.51Q43.52-0.26 42.02-1.92ZM55.52-27.90L55.52-27.90L55.52-27.90Q54.78-26.75 54.14-24.80L54.14-24.80L54.14-24.80Q53.50-22.85 52.45-17.63L52.45-17.63L52.45-17.63Q51.39-12.42 51.39-8.70L51.39-8.70L51.39-8.70Q51.39-4.99 51.97-3.90L51.97-3.90L51.97-3.90Q52.54-2.82 53.57-2.82L53.57-2.82L53.57-2.82Q55.62-2.82 57.12-4.77L57.12-4.77L57.12-4.77Q58.62-6.72 59.20-10.18L59.20-10.18L62.59-28.93L62.59-28.93Q61.25-30.08 59.68-30.08L59.68-30.08L59.68-30.08Q58.11-30.08 57.18-29.57L57.18-29.57L57.18-29.57Q56.26-29.06 55.52-27.90ZM106.50 1.28L106.50 1.28L106.50 1.28Q98.75 1.28 98.75-4.74L98.75-4.74L98.75-4.74Q98.82-6.40 99.33-9.22L99.33-9.22L100.48-15.10L100.48-15.10Q102.21-23.42 102.21-25.28L102.21-25.28L102.21-25.28Q102.21-28.99 100.03-28.99L100.03-28.99L100.03-28.99Q96.38-28.99 94.46-19.46L94.46-19.46L90.69 0L77.82 1.28L84.48-32.70L94.98-33.92L93.95-27.65L93.95-27.65Q96.96-33.92 106.18-33.92L106.18-33.92L106.18-33.92Q110.66-33.92 112.54-32.03L112.54-32.03L112.54-32.03Q114.43-30.14 114.43-25.92L114.43-25.92L114.43-25.92Q114.43-21.95 112.38-12.67L112.38-12.67L112.38-12.67Q111.42-8.51 111.42-6.94L111.42-6.94L111.42-6.94Q111.42-5.38 112.29-4.48L112.29-4.48L112.29-4.48Q113.15-3.58 114.43-3.46L114.43-3.46L114.43-3.46Q113.79-1.28 111.58 0L111.58 0L111.58 0Q109.38 1.28 106.50 1.28ZM150.98-26.62L150.98-26.62L150.98-26.62Q150.98-23.94 148.74-22.27L148.74-22.27L148.74-22.27Q146.50-20.61 142.85-20.61L142.85-20.61L142.85-20.61Q141.31-20.61 140.42-21.06L140.42-21.06L140.42-21.06Q141.12-22.72 141.34-24.80L141.34-24.80L141.34-24.80Q141.57-26.88 141.57-27.46L141.57-27.46L141.57-27.46Q141.57-30.14 139.71-30.14L139.71-30.14L139.71-30.14Q138.43-30.14 136.99-28.54L136.99-28.54L136.99-28.54Q135.55-26.94 134.34-24.45L134.34-24.45L134.34-24.45Q131.65-18.69 131.65-12.86L131.65-12.86L131.65-12.86Q131.65-9.66 132.86-8.22L132.86-8.22L132.86-8.22Q134.08-6.78 136.77-6.78L136.77-6.78L136.77-6.78Q140.48-6.78 143.42-9.86L143.42-9.86L143.42-9.86Q144.26-10.82 144.70-11.90L144.70-11.90L144.70-11.90Q147.14-10.62 147.14-7.10L147.14-7.10L147.14-7.10Q147.14-3.52 143.17-1.15L143.17-1.15L143.17-1.15Q139.07 1.28 132.54 1.28L132.54 1.28L132.54 1.28Q119.55 1.28 119.55-12.48L119.55-12.48L119.55-12.48Q119.55-22.53 125.25-28.29L125.25-28.29L125.25-28.29Q130.75-33.92 140.86-33.92L140.86-33.92L140.86-33.92Q150.98-33.92 150.98-26.62ZM166.66 1.28L166.66 1.28L166.66 1.28Q152.58 1.28 152.58-11.97L152.58-11.97L152.58-11.97Q152.58-21.38 157.76-27.46L157.76-27.46L157.76-27.46Q163.26-33.92 172.80-33.92L172.80-33.92L172.80-33.92Q179.71-33.92 183.23-30.72L183.23-30.72L183.23-30.72Q186.75-27.52 186.75-20.80L186.75-20.80L186.75-20.80Q186.75-10.56 181.25-4.61L181.25-4.61L181.25-4.61Q175.87 1.28 166.66 1.28ZM168.32-26.56L168.32-26.56L168.32-26.56Q167.55-24.83 166.94-22.24L166.94-22.24L166.94-22.24Q166.34-19.65 165.57-15.55L165.57-15.55L165.57-15.55Q164.80-11.46 164.80-6.40L164.80-6.40L164.80-6.40Q164.80-4.74 165.34-3.65L165.34-3.65L165.34-3.65Q165.89-2.56 167.36-2.56L167.36-2.56L167.36-2.56Q168.83-2.56 169.76-3.26L169.76-3.26L169.76-3.26Q170.69-3.97 171.39-5.63L171.39-5.63L171.39-5.63Q172.67-8.58 173.70-14.05L173.70-14.05L173.70-14.05Q174.72-19.52 174.82-21.89L174.82-21.89L174.82-21.89Q174.91-24.26 174.91-26.02L174.91-26.02L174.91-26.02Q174.91-27.78 174.40-28.93L174.40-28.93L174.40-28.93Q173.89-30.08 172.45-30.08L172.45-30.08L172.45-30.08Q171.01-30.08 170.05-29.18L170.05-29.18L170.05-29.18Q169.09-28.29 168.32-26.56ZM211.07-2.69L211.07-2.69L211.07-2.69Q208 1.28 200.38 1.28L200.38 1.28L200.38 1.28Q196.42 1.28 193.54-1.12L193.54-1.12L193.54-1.12Q190.66-3.52 190.66-6.98L190.66-6.98L190.66-6.98Q190.66-8.90 190.85-9.86L190.85-9.86L195.14-32.64L208.13-33.92L203.46-9.22L203.46-9.22Q203.20-7.81 203.20-6.98L203.20-6.98L203.20-6.98Q203.20-3.26 205.44-3.26L205.44-3.26L205.44-3.26Q207.94-3.26 209.73-6.66L209.73-6.66L209.73-6.66Q210.30-7.74 210.56-9.15L210.56-9.15L215.10-32.64L227.71-33.92L222.98-8.96L222.98-8.96Q222.78-8 222.78-6.98L222.78-6.98L222.78-6.98Q222.78-5.95 223.36-4.83L223.36-4.83L223.36-4.83Q223.94-3.71 225.79-3.46L225.79-3.46L225.79-3.46Q225.41-1.92 224.06-0.90L224.06-0.90L224.06-0.90Q221.25 1.28 218.21 1.28L218.21 1.28L218.21 1.28Q215.17 1.28 213.38 0.19L213.38 0.19L213.38 0.19Q211.58-0.90 211.07-2.69ZM254.40-31.55L254.40-31.55L254.40-31.55Q256.51-33.92 260.16-33.92L260.16-33.92L260.16-33.92Q262.40-33.92 264.13-32.70L264.13-32.70L264.13-32.70Q265.86-31.49 265.86-29.22L265.86-29.22L265.86-29.22Q265.86-26.94 265.15-24.51L265.15-24.51L265.15-24.51Q264.45-22.08 263.36-19.58L263.36-19.58L263.36-19.58Q261.18-14.72 258.18-10.69L258.18-10.69L258.18-10.69Q253.95-4.86 249.89-1.79L249.89-1.79L249.89-1.79Q245.82 1.28 241.41 1.28L241.41 1.28L241.41 1.28Q237.82 1.28 235.65 0.45L235.65 0.45L235.65 0.45Q235.26-12.99 234.78-17.79L234.78-17.79L234.78-17.79Q234.30-22.59 233.92-25.22L233.92-25.22L233.92-25.22Q233.28-30.34 231.36-31.55L231.36-31.55L231.36-31.55Q232.83-32.83 234.27-33.38L234.27-33.38L234.27-33.38Q235.71-33.92 238.69-33.92L238.69-33.92L238.69-33.92Q241.66-33.92 243.78-31.58L243.78-31.58L243.78-31.58Q245.89-29.25 246.30-25.12L246.30-25.12L246.30-25.12Q246.72-20.99 246.72-16L246.72-16L246.72-16Q246.72-11.01 246.34-4.99L246.34-4.99L246.34-4.99Q248.32-6.40 250.43-10.69L250.43-10.69L250.43-10.69Q253.31-16.64 254.34-23.81L254.34-23.81L254.34-23.81Q254.66-25.98 254.66-28.29L254.66-28.29L254.66-28.29Q254.66-30.59 254.40-31.55ZM293.50-10.82L293.50-10.82L293.50-10.82Q295.10-9.73 295.10-7.33L295.10-7.33L295.10-7.33Q295.10-4.93 293.89-3.39L293.89-3.39L293.89-3.39Q292.67-1.86 290.69-0.83L290.69-0.83L290.69-0.83Q286.59 1.28 282.18 1.28L282.18 1.28L282.18 1.28Q277.76 1.28 275.17 0.32L275.17 0.32L275.17 0.32Q272.58-0.64 270.85-2.43L270.85-2.43L270.85-2.43Q267.46-5.82 267.46-12.03L267.46-12.03L267.46-12.03Q267.46-21.70 272.70-27.58L272.70-27.58L272.70-27.58Q278.34-33.92 288.13-33.92L288.13-33.92L288.13-33.92Q294.21-33.92 297.22-31.36L297.22-31.36L297.22-31.36Q299.46-29.44 299.46-26.30L299.46-26.30L299.46-26.30Q299.46-15.04 280-15.04L280-15.04L280-15.04Q279.74-13.38 279.74-11.97L279.74-11.97L279.74-11.97Q279.74-9.02 281.06-7.90L281.06-7.90L281.06-7.90Q282.37-6.78 284.80-6.78L284.80-6.78L284.80-6.78Q287.23-6.78 289.82-7.90L289.82-7.90L289.82-7.90Q292.42-9.02 293.50-10.82ZM280.45-17.79L280.45-17.79L280.45-17.79Q284.99-17.79 287.62-20.61L287.62-20.61L287.62-20.61Q290.24-23.30 290.24-27.58L290.24-27.58L290.24-27.58Q290.24-29.06 289.70-29.86L289.70-29.86L289.70-29.86Q289.15-30.66 288.06-30.66L288.06-30.66L288.06-30.66Q286.98-30.66 286.05-30.24L286.05-30.24L286.05-30.24Q285.12-29.82 284.16-28.42L284.16-28.42L284.16-28.42Q281.79-25.22 280.45-17.79ZM321.66-17.98L321.66-17.98L321.66-17.98Q323.97-22.08 323.97-26.24L323.97-26.24L323.97-26.24Q323.97-28.99 321.98-28.99L321.98-28.99L321.98-28.99Q320.45-28.99 318.85-26.37L318.85-26.37L318.85-26.37Q317.18-23.74 316.67-20.35L316.67-20.35L313.34 0L300.10 1.28L306.62-32.64L317.18-33.92L316.03-27.46L316.03-27.46Q319.17-33.92 326.21-33.92L326.21-33.92L326.21-33.92Q329.92-33.92 331.94-32L331.94-32L331.94-32Q333.95-30.08 333.95-26.14L333.95-26.14L333.95-26.14Q333.95-22.21 331.36-19.71L331.36-19.71L331.36-19.71Q328.77-17.22 324.35-17.22L324.35-17.22L324.35-17.22Q322.43-17.22 321.66-17.98Z" fill="#85a2b6"></path></g></g><style>text {
  font-size: 64px;
  font-family: Arial Black;
  dominant-baseline: central;
  text-anchor: middle;
}</style></svg>